<svg width="612.1px" height="153.5px" xmlns="http://www.w3.org/2000/svg" viewBox="-56.03642578124999 -1.763636779785159 612.0728515625 153.52727355957032" style="background: #fff" preserveAspectRatio="xMidYMid"><defs><filter id="editing-marble" x="-100%" y="-100%" width="300%" height="300%"><feFlood flood-color="#b44607" result="flood-1"></feFlood><feComposite operator="in" in="flood-1" in2="SourceAlpha" result="flood-2"></feComposite><feTurbulence baseFrequency="0.02" type="fractalNoise" numOctaves="1" seed="2" result="bs-1"></feTurbulence><feGaussianBlur stdDeviation="0" in="flood-2" result="bs-2"></feGaussianBlur><feDisplacementMap scale="50" in="bs-2" in2="bs-1" result="bs-3"></feDisplacementMap><feComposite operator="in" in="bs-3" in2="SourceAlpha" result="texture"></feComposite><feMerge><feMergeNode in="SourceGraphic"></feMergeNode><feMergeNode in="texture"></feMergeNode></feMerge></filter></defs><g filter="url(#editing-marble)"><g transform="matrix(1.2,0,0,1.6,-0.6,191.3)"><path d="M -37.9 -58.5 L -37.9 -58.5 L -36.3 -79.9 L -36.3 -79.9 Q -35.5 -90.6 -35.1 -95.7 L -35.1 -95.7 L -35.1 -95.7 Q -34.8 -100.7 -34.8 -100.7 L -34.8 -100.7 L -34.8 -100.7 Q -34.7 -101.2 -34.7 -101.6 L -34.7 -101.6 L -34.7 -101.6 Q -34.7 -102 -34.6 -102.2 L -34.6 -102.2 L -34.6 -102.2 Q -34.5 -102.5 -34.3 -102.6 L -34.3 -102.6 L -34.3 -102.6 Q -34.2 -102.7 -33.9 -102.8 L -33.9 -102.8 L -23 -105.4 L -23 -105.4 Q -22.6 -105.5 -22.2 -105.5 L -22.2 -105.5 L -22.2 -105.5 Q -21.8 -105.5 -21.6 -105.2 L -21.6 -105.2 L -21.6 -105.2 Q -21.4 -105 -21.4 -104.2 L -21.4 -104.2 L -21.4 -104.2 Q -21.7 -102.2 -21.8 -100.5 L -21.8 -100.5 L -21.8 -100.5 Q -21.9 -98.8 -22 -97.3 L -22 -97.3 L -22 -97.3 Q -22.1 -95.8 -22.1 -94.4 L -22.1 -94.4 L -22.1 -94.4 Q -22.2 -92.9 -22.3 -91.5 L -22.3 -91.5 L -22.3 -91.5 Q -22.5 -90 -22.6 -88.5 L -22.6 -88.5 L -22.6 -88.5 Q -22.8 -86.9 -22.9 -85.3 L -22.9 -85.3 L -22.9 -85.3 Q -23 -83.7 -23.1 -81.8 L -23.1 -81.8 L -23.1 -81.8 Q -23.3 -80 -23.5 -77.8 L -23.5 -77.8 L -24.9 -61.4 L -24.9 -61.4 Q -24.9 -61.1 -25 -60.8 L -25 -60.8 L -25 -60.8 Q -25 -60.6 -25.4 -60.4 L -25.4 -60.4 L -25.4 -60.4 Q -25.4 -60.4 -25.8 -60.3 L -25.8 -60.3 L -25.8 -60.3 Q -26.1 -60.2 -26.7 -60 L -26.7 -60 L -26.7 -60 Q -27.2 -59.8 -28 -59.5 L -28 -59.5 L -28 -59.5 Q -28.7 -59.3 -29.6 -59.1 L -29.6 -59.1 L -29.6 -59.1 Q -31 -58.8 -32 -58.5 L -32 -58.5 L -32 -58.5 Q -33.1 -58.2 -33.9 -57.9 L -33.9 -57.9 L -33.9 -57.9 Q -34.7 -57.7 -35.4 -57.5 L -35.4 -57.5 L -35.4 -57.5 Q -36.1 -57.3 -36.8 -57.3 L -36.8 -57.3 L -36.8 -57.3 Q -37.2 -57.3 -37.5 -57.6 L -37.5 -57.6 L -37.5 -57.6 Q -37.9 -57.8 -37.9 -58.5 Z M 34.8 -60.5 L 27.1 -58.4 L 27.1 -58.4 Q 26.8 -58.3 26.2 -58.1 L 26.2 -58.1 L 26.2 -58.1 Q 25.7 -57.9 25.1 -57.9 L 25.1 -57.9 L 25.1 -57.9 Q 24.7 -57.9 24.4 -58.1 L 24.4 -58.1 L 24.4 -58.1 Q 24.1 -58.3 24.1 -58.8 L 24.1 -58.8 L 24.1 -59 L 24.1 -59 Q 24.3 -61.3 24.4 -62.7 L 24.4 -62.7 L 24.4 -62.7 Q 24.6 -64.2 24.7 -65 L 24.7 -65 L 24.7 -65 Q 24.8 -65.9 24.8 -66.4 L 24.8 -66.4 L 24.8 -66.4 Q 24.9 -66.8 25 -67.2 L 25 -67.2 L 25 -67.2 Q 25 -67.6 25.1 -68.1 L 25.1 -68.1 L 25.1 -68.1 Q 25.1 -68.5 25.2 -69.4 L 25.2 -69.4 L 25.2 -69.4 Q 25.3 -70.3 25.4 -71.7 L 25.4 -71.7 L 25.4 -71.7 Q 25.6 -73.1 25.8 -75.4 L 25.8 -75.4 L 25.8 -75.4 Q 25.9 -76.7 26.1 -77.9 L 26.1 -77.9 L 26.1 -77.9 Q 26.2 -79.1 26.2 -80.2 L 26.2 -80.2 L 26.2 -80.2 Q 26.2 -81.5 26.1 -82.6 L 26.1 -82.6 L 26.1 -82.6 Q 25.9 -83.6 25.6 -84.4 L 25.6 -84.4 L 25.6 -84.4 Q 25.2 -85.2 24.6 -85.6 L 24.6 -85.6 L 24.6 -85.6 Q 24 -86 23 -86 L 23 -86 L 23 -86 Q 22.4 -86 21.4 -85.8 L 21.4 -85.8 L 21.4 -85.8 Q 20.5 -85.5 19.5 -84.9 L 19.5 -84.9 L 19.5 -84.9 Q 18.6 -84.3 17.8 -83.2 L 17.8 -83.2 L 17.8 -83.2 Q 17 -82.2 16.8 -80.6 L 16.8 -80.6 L 16.8 -80.4 L 16.8 -80.4 Q 16.4 -76.9 16.1 -74.3 L 16.1 -74.3 L 16.1 -74.3 Q 15.8 -71.7 15.6 -69.8 L 15.6 -69.8 L 15.6 -69.8 Q 15.4 -67.9 15.2 -66.7 L 15.2 -66.7 L 15.2 -66.7 Q 15.1 -65.4 15 -64.5 L 15 -64.5 L 15 -64.5 Q 14.9 -63.7 14.8 -63.1 L 14.8 -63.1 L 14.8 -63.1 Q 14.8 -62.6 14.8 -62.1 L 14.8 -62.1 L 14.8 -62.1 Q 14.8 -61.8 14.8 -61.6 L 14.8 -61.6 L 14.8 -61.6 Q 14.8 -61.5 14.8 -61.3 L 14.8 -61.3 L 14.8 -61.3 Q 14.8 -61.1 14.6 -60.9 L 14.6 -60.9 L 14.6 -60.9 Q 14.4 -60.8 13.6 -60.5 L 13.6 -60.5 L 6.2 -58.4 L 6.2 -58.4 Q 5.9 -58.3 5.3 -58.1 L 5.3 -58.1 L 5.3 -58.1 Q 4.7 -57.9 4.2 -57.9 L 4.2 -57.9 L 4.2 -57.9 Q 3.8 -57.9 3.4 -58.1 L 3.4 -58.1 L 3.4 -58.1 Q 3.1 -58.3 3.1 -58.8 L 3.1 -58.8 L 3.1 -59 L 3.1 -59 Q 3.3 -61.3 3.5 -62.7 L 3.5 -62.7 L 3.5 -62.7 Q 3.6 -64.2 3.7 -65 L 3.7 -65 L 3.7 -65 Q 3.8 -65.9 3.9 -66.4 L 3.9 -66.4 L 3.9 -66.4 Q 4 -66.8 4 -67.2 L 4 -67.2 L 4 -67.2 Q 4.1 -67.6 4.1 -68.1 L 4.1 -68.1 L 4.1 -68.1 Q 4.2 -68.5 4.3 -69.4 L 4.3 -69.4 L 4.3 -69.4 Q 4.3 -70.3 4.5 -71.7 L 4.5 -71.7 L 4.5 -71.7 Q 4.6 -73.1 4.8 -75.4 L 4.8 -75.4 L 4.8 -75.4 Q 5 -76.7 5.1 -77.9 L 5.1 -77.9 L 5.1 -77.9 Q 5.2 -79.1 5.2 -80.2 L 5.2 -80.2 L 5.2 -80.2 Q 5.2 -81.5 5.1 -82.6 L 5.1 -82.6 L 5.1 -82.6 Q 5 -83.6 4.7 -84.4 L 4.7 -84.4 L 4.7 -84.4 Q 4.3 -85.2 3.8 -85.6 L 3.8 -85.6 L 3.8 -85.6 Q 3.2 -86 2.3 -86 L 2.3 -86 L 2.3 -86 Q 1.7 -86 0.6 -85.7 L 0.6 -85.7 L 0.6 -85.7 Q -0.4 -85.4 -1.5 -84.7 L -1.5 -84.7 L -1.5 -84.7 Q -2.6 -84 -3.4 -82.8 L -3.4 -82.8 L -3.4 -82.8 Q -4.3 -81.6 -4.4 -79.9 L -4.4 -79.9 L -4.4 -79.9 Q -4.6 -77.6 -4.8 -76.1 L -4.8 -76.1 L -4.8 -76.1 Q -4.9 -74.6 -5 -73.7 L -5 -73.7 L -5 -73.7 Q -5.1 -72.7 -5.2 -72.1 L -5.2 -72.1 L -5.2 -72.1 Q -5.2 -71.6 -5.3 -71.1 L -5.3 -71.1 L -5.3 -71.1 Q -5.3 -70.9 -5.4 -70.4 L -5.4 -70.4 L -5.4 -70.4 Q -5.4 -69.8 -5.5 -69 L -5.5 -69 L -5.5 -69 Q -5.6 -68.2 -5.7 -67.3 L -5.7 -67.3 L -5.7 -67.3 Q -5.7 -66.3 -5.8 -65.5 L -5.8 -65.5 L -5.8 -65.5 Q -5.9 -64.8 -5.9 -64.2 L -5.9 -64.2 L -5.9 -64.2 Q -5.9 -63.6 -5.9 -63.5 L -5.9 -63.5 L -5.9 -62.9 L -5.9 -62.9 Q -5.9 -62.6 -6 -62.4 L -6 -62.4 L -6 -62.4 Q -6 -62.2 -6.2 -62 L -6.2 -62 L -6.2 -62 Q -6.3 -61.8 -6.6 -61.6 L -6.6 -61.6 L -6.6 -61.6 Q -6.9 -61.5 -7.4 -61.3 L -7.4 -61.3 L -15.6 -58.4 L -15.6 -58.4 Q -16 -58.2 -16.5 -58.1 L -16.5 -58.1 L -16.5 -58.1 Q -17.1 -57.9 -17.6 -57.9 L -17.6 -57.9 L -17.6 -57.9 Q -18.1 -57.9 -18.4 -58.1 L -18.4 -58.1 L -18.4 -58.1 Q -18.7 -58.3 -18.7 -58.8 L -18.7 -58.8 L -15.9 -90.7 L -15.9 -90.7 Q -15.8 -91.8 -15.7 -92.1 L -15.7 -92.1 L -15.7 -92.1 Q -15.5 -92.5 -15 -92.7 L -15 -92.7 L -15 -92.7 Q -12.1 -93.2 -9.2 -93.8 L -9.2 -93.8 L -9.2 -93.8 Q -6.2 -94.4 -3.4 -95.3 L -3.4 -95.3 L -3.4 -95.3 Q -3.1 -95.3 -3.1 -95.2 L -3.1 -95.2 L -3.1 -95.2 Q -3 -95.1 -3 -95 L -3 -95 L -3.4 -90.4 L -3.4 -90.4 Q -2.3 -91 -0.8 -91.7 L -0.8 -91.7 L -0.8 -91.7 Q 0.6 -92.4 2.2 -93 L 2.2 -93 L 2.2 -93 Q 3.8 -93.6 5.4 -94 L 5.4 -94 L 5.4 -94 Q 7.1 -94.4 8.6 -94.4 L 8.6 -94.4 L 8.6 -94.4 Q 10.8 -94.4 12.6 -93.4 L 12.6 -93.4 L 12.6 -93.4 Q 14.4 -92.4 15.6 -90.1 L 15.6 -90.1 L 15.6 -90.1 Q 17 -91 18.6 -91.8 L 18.6 -91.8 L 18.6 -91.8 Q 20.2 -92.6 21.8 -93.2 L 21.8 -93.2 L 21.8 -93.2 Q 23.5 -93.7 25.1 -94 L 25.1 -94 L 25.1 -94 Q 26.8 -94.3 28.3 -94.3 L 28.3 -94.3 L 28.3 -94.3 Q 30.3 -94.3 32.1 -93.8 L 32.1 -93.8 L 32.1 -93.8 Q 33.8 -93.2 35.1 -91.9 L 35.1 -91.9 L 35.1 -91.9 Q 36.4 -90.7 37.1 -88.6 L 37.1 -88.6 L 37.1 -88.6 Q 37.9 -86.6 37.9 -83.6 L 37.9 -83.6 L 37.9 -83.6 Q 37.9 -82.9 37.9 -82.1 L 37.9 -82.1 L 37.9 -82.1 Q 37.8 -81.3 37.7 -80.4 L 37.7 -80.4 L 36.3 -67.1 L 36.3 -67.1 Q 36.1 -65.8 36.1 -64.6 L 36.1 -64.6 L 36.1 -64.6 Q 36.1 -63.5 36.1 -62.1 L 36.1 -62.1 L 36.1 -62.1 Q 36.1 -61.8 36.1 -61.6 L 36.1 -61.6 L 36.1 -61.6 Q 36.1 -61.5 36.1 -61.3 L 36.1 -61.3 L 36.1 -61.3 Q 36.1 -61.1 35.9 -60.9 L 35.9 -60.9 L 35.9 -60.9 Q 35.6 -60.8 34.8 -60.5 L 34.8 -60.5 Z M 77.7 -94.9 L 74.5 -65.8 L 74.5 -65.8 Q 74.5 -65.7 74.5 -65.5 L 74.5 -65.5 L 74.5 -65.5 Q 74.5 -65.4 74.5 -65.3 L 74.5 -65.3 L 74.5 -65.3 Q 74.5 -64.6 74.7 -64 L 74.7 -64 L 74.7 -64 Q 75 -63.5 75.3 -63.2 L 75.3 -63.2 L 75.3 -63.2 Q 75.6 -62.9 75.8 -62.7 L 75.8 -62.7 L 75.8 -62.7 Q 76.1 -62.5 76.1 -62.3 L 76.1 -62.3 L 76.1 -62.3 Q 76.1 -61.9 75.1 -61.5 L 75.1 -61.5 L 66.7 -57.9 L 66.7 -57.9 Q 66.7 -57.9 66.5 -57.9 L 66.5 -57.9 L 66.5 -57.9 Q 66.3 -57.9 66 -58.3 L 66 -58.3 L 66 -58.3 Q 65.8 -58.7 65.5 -59.4 L 65.5 -59.4 L 65.5 -59.4 Q 65.3 -60.1 65.1 -60.9 L 65.1 -60.9 L 65.1 -60.9 Q 64.9 -61.6 64.7 -62.3 L 64.7 -62.3 L 64.7 -62.3 Q 62.8 -60 60.5 -58.9 L 60.5 -58.9 L 60.5 -58.9 Q 58.2 -57.9 56 -57.9 L 56 -57.9 L 56 -57.9 Q 53.3 -57.9 50.8 -59 L 50.8 -59 L 50.8 -59 Q 48.3 -60.2 46.4 -62.3 L 46.4 -62.3 L 46.4 -62.3 Q 44.5 -64.5 43.3 -67.5 L 43.3 -67.5 L 43.3 -67.5 Q 42.1 -70.5 42.1 -74.3 L 42.1 -74.3 L 42.1 -74.3 Q 42.1 -78.8 43.4 -82.5 L 43.4 -82.5 L 43.4 -82.5 Q 44.7 -86.2 46.9 -88.8 L 46.9 -88.8 L 46.9 -88.8 Q 49.1 -91.5 52.1 -92.9 L 52.1 -92.9 L 52.1 -92.9 Q 55.1 -94.4 58.4 -94.4 L 58.4 -94.4 L 58.4 -94.4 Q 60.7 -94.4 62.8 -93.4 L 62.8 -93.4 L 62.8 -93.4 Q 64.9 -92.5 66.8 -91 L 66.8 -91 L 66.8 -91 Q 67 -91.9 67 -92.5 L 67 -92.5 L 67 -92.5 Q 67 -93 67.1 -93.3 L 67.1 -93.3 L 67.1 -93.3 Q 67.2 -93.7 67.6 -93.8 L 67.6 -93.8 L 67.6 -93.8 Q 67.9 -93.9 68.6 -93.9 L 68.6 -93.9 L 68.6 -93.9 Q 70.8 -94.3 73.1 -94.5 L 73.1 -94.5 L 73.1 -94.5 Q 75.3 -94.8 77.7 -94.9 L 77.7 -94.9 Z M 63.9 -68.3 L 65.2 -77.6 L 65.2 -77.6 Q 65.5 -79.3 65.6 -80.9 L 65.6 -80.9 L 65.6 -80.9 Q 65.7 -82.5 65.8 -83.8 L 65.8 -83.8 L 65.8 -83.8 Q 65.3 -84.2 64.7 -84.6 L 64.7 -84.6 L 64.7 -84.6 Q 64.1 -85 63.4 -85.4 L 63.4 -85.4 L 63.4 -85.4 Q 62.8 -85.7 62 -85.9 L 62 -85.9 L 62 -85.9 Q 61.3 -86.2 60.5 -86.2 L 60.5 -86.2 L 60.5 -86.2 Q 58.8 -86.2 57.7 -85.1 L 57.7 -85.1 L 57.7 -85.1 Q 56.5 -84 55.8 -82.4 L 55.8 -82.4 L 55.8 -82.4 Q 55.1 -80.8 54.8 -79 L 54.8 -79 L 54.8 -79 Q 54.5 -77.2 54.5 -75.8 L 54.5 -75.8 L 54.5 -75.8 Q 54.5 -70.9 55.8 -68.6 L 55.8 -68.6 L 55.8 -68.6 Q 57.1 -66.3 59.4 -66.3 L 59.4 -66.3 L 59.4 -66.3 Q 60.4 -66.3 61.5 -66.8 L 61.5 -66.8 L 61.5 -66.8 Q 62.7 -67.4 63.9 -68.3 L 63.9 -68.3 Z M 104.4 -81.3 L 104.4 -81.8 L 104.4 -81.8 Q 104.1 -82.5 103.5 -83.3 L 103.5 -83.3 L 103.5 -83.3 Q 103 -84 102.3 -84.6 L 102.3 -84.6 L 102.3 -84.6 Q 101.6 -85.3 100.7 -85.6 L 100.7 -85.6 L 100.7 -85.6 Q 99.9 -86 98.9 -86 L 98.9 -86 L 98.9 -86 Q 97.6 -86 96.5 -85 L 96.5 -85 L 96.5 -85 Q 95.4 -83.9 94.6 -82.1 L 94.6 -82.1 L 94.6 -82.1 Q 93.7 -80.4 93.2 -78.1 L 93.2 -78.1 L 93.2 -78.1 Q 92.7 -75.8 92.7 -73.4 L 92.7 -73.4 L 92.7 -73.4 Q 92.7 -71.9 93 -70.6 L 93 -70.6 L 93 -70.6 Q 93.3 -69.3 93.8 -68.3 L 93.8 -68.3 L 93.8 -68.3 Q 94.4 -67.3 95.3 -66.7 L 95.3 -66.7 L 95.3 -66.7 Q 96.2 -66.1 97.4 -66.1 L 97.4 -66.1 L 97.4 -66.1 Q 99.3 -66.1 100.9 -67.2 L 100.9 -67.2 L 100.9 -67.2 Q 102.4 -68.4 103.5 -70.3 L 103.5 -70.3 L 103.5 -70.3 Q 103.6 -70.9 103.6 -71.8 L 103.6 -71.8 L 103.6 -71.8 Q 103.7 -72.8 103.8 -74.1 L 103.8 -74.1 L 103.8 -74.1 Q 103.9 -75.3 104 -77.1 L 104 -77.1 L 104 -77.1 Q 104.1 -78.9 104.4 -81.3 L 104.4 -81.3 Z M 118 -92.4 L 114.7 -62.9 L 114.7 -62.9 Q 114.4 -59.8 113.3 -57.1 L 113.3 -57.1 L 113.3 -57.1 Q 112.2 -54.4 110.6 -52.2 L 110.6 -52.2 L 110.6 -52.2 Q 108.9 -50 106.7 -48.2 L 106.7 -48.2 L 106.7 -48.2 Q 104.6 -46.4 102.2 -45.2 L 102.2 -45.2 L 102.2 -45.2 Q 99.8 -44 97.3 -43.4 L 97.3 -43.4 L 97.3 -43.4 Q 94.8 -42.7 92.3 -42.7 L 92.3 -42.7 L 92.3 -42.7 Q 91 -42.7 89.6 -42.8 L 89.6 -42.8 L 89.6 -42.8 Q 88.2 -42.9 86.9 -43.2 L 86.9 -43.2 L 86.9 -43.2 Q 85.6 -43.4 84.4 -43.9 L 84.4 -43.9 L 84.4 -43.9 Q 83.2 -44.4 82.3 -45.2 L 82.3 -45.2 L 82.3 -45.2 L 82.3 -45.2 Q 82.3 -45.3 82.5 -46.3 L 82.5 -46.3 L 82.5 -46.3 Q 82.8 -47.2 83.1 -48.5 L 83.1 -48.5 L 83.1 -48.5 Q 83.4 -49.7 83.8 -51.1 L 83.8 -51.1 L 83.8 -51.1 Q 84.1 -52.4 84.4 -53.4 L 84.4 -53.4 L 84.4 -53.4 Q 84.5 -53.8 84.6 -54 L 84.6 -54 L 84.6 -54 Q 84.8 -54.2 84.9 -54.2 L 84.9 -54.2 L 84.9 -54.2 Q 85.1 -54.2 85.1 -54.1 L 85.1 -54.1 L 85.1 -54.1 Q 86.1 -53.5 86.9 -53.1 L 86.9 -53.1 L 86.9 -53.1 Q 87.6 -52.7 88.5 -52.5 L 88.5 -52.5 L 88.5 -52.5 Q 89.4 -52.3 90.5 -52.2 L 90.5 -52.2 L 90.5 -52.2 Q 91.6 -52.1 93 -52.1 L 93 -52.1 L 93 -52.1 Q 95.1 -52.1 96.8 -52.9 L 96.8 -52.9 L 96.8 -52.9 Q 98.5 -53.8 99.7 -55.1 L 99.7 -55.1 L 99.7 -55.1 Q 101 -56.5 101.7 -58.1 L 101.7 -58.1 L 101.7 -58.1 Q 102.4 -59.7 102.7 -61.3 L 102.7 -61.3 L 102.7 -61.3 Q 100.5 -59.8 98.1 -58.8 L 98.1 -58.8 L 98.1 -58.8 Q 95.8 -57.9 93.5 -57.9 L 93.5 -57.9 L 93.5 -57.9 Q 90.3 -57.9 87.9 -59.2 L 87.9 -59.2 L 87.9 -59.2 Q 85.6 -60.5 84.1 -62.7 L 84.1 -62.7 L 84.1 -62.7 Q 82.5 -64.8 81.8 -67.7 L 81.8 -67.7 L 81.8 -67.7 Q 81.1 -70.5 81.1 -73.6 L 81.1 -73.6 L 81.1 -73.6 Q 81.1 -76 81.5 -78.5 L 81.5 -78.5 L 81.5 -78.5 Q 82 -81 82.8 -83.3 L 82.8 -83.3 L 82.8 -83.3 Q 83.7 -85.6 85.1 -87.6 L 85.1 -87.6 L 85.1 -87.6 Q 86.4 -89.7 88.1 -91.2 L 88.1 -91.2 L 88.1 -91.2 Q 89.8 -92.7 91.9 -93.5 L 91.9 -93.5 L 91.9 -93.5 Q 94 -94.4 96.5 -94.4 L 96.5 -94.4 L 96.5 -94.4 Q 99.1 -94.4 101.4 -93.2 L 101.4 -93.2 L 101.4 -93.2 Q 103.7 -92 105.6 -90.3 L 105.6 -90.3 L 105.6 -90.3 Q 105.7 -90.8 105.7 -91.1 L 105.7 -91.1 L 105.7 -91.1 Q 105.7 -91.5 105.9 -91.7 L 105.9 -91.7 L 105.9 -91.7 Q 106 -91.8 106.3 -91.9 L 106.3 -91.9 L 106.3 -91.9 Q 106.6 -92 107.1 -92.2 L 107.1 -92.2 L 107.1 -92.2 Q 107.5 -92.2 108.4 -92.4 L 108.4 -92.4 L 108.4 -92.4 Q 109.3 -92.6 110.6 -92.9 L 110.6 -92.9 L 110.6 -92.9 Q 111.8 -93.2 113.3 -93.5 L 113.3 -93.5 L 113.3 -93.5 Q 114.8 -93.8 116.3 -94.2 L 116.3 -94.2 L 116.3 -94.2 Q 116.7 -94.3 117 -94.3 L 117 -94.3 L 117 -94.3 Q 118 -94.3 118 -93 L 118 -93 L 118 -93 Q 118 -92.8 118 -92.7 L 118 -92.7 L 118 -92.7 Q 118 -92.6 118 -92.4 L 118 -92.4 Z M 140.7 -94.4 L 140.7 -94.4 L 140.7 -94.4 Q 143.7 -94.4 146.1 -93.3 L 146.1 -93.3 L 146.1 -93.3 Q 148.5 -92.2 150.2 -90.4 L 150.2 -90.4 L 150.2 -90.4 Q 152 -88.6 152.9 -86.4 L 152.9 -86.4 L 152.9 -86.4 Q 153.9 -84.3 153.9 -82.1 L 153.9 -82.1 L 153.9 -82.1 Q 153.9 -80.1 152.7 -78.2 L 152.7 -78.2 L 152.7 -78.2 Q 151.5 -76.2 149.4 -74.7 L 149.4 -74.7 L 149.4 -74.7 Q 147.2 -73.1 144.2 -72.1 L 144.2 -72.1 L 144.2 -72.1 Q 141.2 -71.2 137.6 -71.2 L 137.6 -71.2 L 137.6 -71.2 Q 135.7 -71.2 133.7 -71.5 L 133.7 -71.5 L 133.7 -71.5 Q 133.8 -70.2 134.5 -69.2 L 134.5 -69.2 L 134.5 -69.2 Q 135.1 -68.3 136.1 -67.6 L 136.1 -67.6 L 136.1 -67.6 Q 137.1 -67 138.4 -66.7 L 138.4 -66.7 L 138.4 -66.7 Q 139.6 -66.4 141 -66.4 L 141 -66.4 L 141 -66.4 Q 142.5 -66.4 143.9 -66.7 L 143.9 -66.7 L 143.9 -66.7 Q 145.3 -66.9 146.6 -67.4 L 146.6 -67.4 L 146.6 -67.4 Q 147.8 -67.8 149 -68.3 L 149 -68.3 L 149 -68.3 Q 150.2 -68.9 151.3 -69.4 L 151.3 -69.4 L 151.3 -69.4 Q 151.6 -69.5 151.7 -69.5 L 151.7 -69.5 L 151.7 -69.5 Q 152 -69.6 152.1 -69.6 L 152.1 -69.6 L 152.1 -69.6 Q 152.1 -69.6 152.1 -69.1 L 152.1 -69.1 L 152.1 -69.1 Q 152.1 -68.6 152.1 -67.7 L 152.1 -67.7 L 152.1 -67.7 Q 152.1 -66.8 152.1 -65.5 L 152.1 -65.5 L 152.1 -65.5 Q 152.1 -64.2 152.1 -62.6 L 152.1 -62.6 L 152.1 -62.6 Q 152.1 -62.5 152.2 -62.3 L 152.2 -62.3 L 152.2 -62.3 Q 152.2 -62.2 152.2 -62.1 L 152.2 -62.1 L 152.2 -62.1 Q 152.2 -61.7 151.5 -61.3 L 151.5 -61.3 L 151.5 -61.3 Q 150.8 -60.8 149.7 -60.3 L 149.7 -60.3 L 149.7 -60.3 Q 148.6 -59.9 147.2 -59.4 L 147.2 -59.4 L 147.2 -59.4 Q 145.8 -59 144.3 -58.6 L 144.3 -58.6 L 144.3 -58.6 Q 142.8 -58.3 141.5 -58.1 L 141.5 -58.1 L 141.5 -58.1 Q 140.1 -57.9 139.1 -57.9 L 139.1 -57.9 L 139.1 -57.9 Q 135.7 -57.9 132.5 -59 L 132.5 -59 L 132.5 -59 Q 129.3 -60.2 126.9 -62.4 L 126.9 -62.4 L 126.9 -62.4 Q 124.4 -64.6 123 -67.7 L 123 -67.7 L 123 -67.7 Q 121.5 -70.8 121.5 -74.8 L 121.5 -74.8 L 121.5 -74.8 Q 121.5 -78.8 122.9 -82.4 L 122.9 -82.4 L 122.9 -82.4 Q 124.3 -86 126.9 -88.7 L 126.9 -88.7 L 126.9 -88.7 Q 129.4 -91.3 132.9 -92.8 L 132.9 -92.8 L 132.9 -92.8 Q 136.5 -94.4 140.7 -94.4 Z M 140.3 -86.1 L 140.3 -86.1 L 140.3 -86.1 Q 139.1 -86.1 138 -85.5 L 138 -85.5 L 138 -85.5 Q 136.9 -85 136 -83.9 L 136 -83.9 L 136 -83.9 Q 135.1 -82.9 134.5 -81.5 L 134.5 -81.5 L 134.5 -81.5 Q 133.8 -80.1 133.4 -78.4 L 133.4 -78.4 L 133.4 -78.4 Q 136.6 -78.9 138.7 -79.6 L 138.7 -79.6 L 138.7 -79.6 Q 140.9 -80.2 142.1 -80.8 L 142.1 -80.8 L 142.1 -80.8 Q 143.4 -81.5 144 -82.1 L 144 -82.1 L 144 -82.1 Q 144.5 -82.8 144.5 -83.3 L 144.5 -83.3 L 144.5 -83.3 Q 144.5 -83.9 144.1 -84.4 L 144.1 -84.4 L 144.1 -84.4 Q 143.6 -84.9 143 -85.3 L 143 -85.3 L 143 -85.3 Q 142.4 -85.7 141.7 -85.9 L 141.7 -85.9 L 141.7 -85.9 Q 140.9 -86.1 140.3 -86.1 Z M 171.7 -79.7 L 171.7 -79.7 L 171.7 -79.7 Q 171.7 -83.3 172.5 -86.6 L 172.5 -86.6 L 172.5 -86.6 Q 173.3 -89.9 174.9 -92.7 L 174.9 -92.7 L 174.9 -92.7 Q 176.4 -95.6 178.6 -97.9 L 178.6 -97.9 L 178.6 -97.9 Q 180.7 -100.3 183.4 -101.9 L 183.4 -101.9 L 183.4 -101.9 Q 186.1 -103.6 189.2 -104.5 L 189.2 -104.5 L 189.2 -104.5 Q 192.4 -105.4 195.9 -105.4 L 195.9 -105.4 L 195.9 -105.4 Q 198.6 -105.4 200.7 -105 L 200.7 -105 L 200.7 -105 Q 202.8 -104.7 204.3 -104.1 L 204.3 -104.1 L 204.3 -104.1 Q 205.9 -103.6 206.9 -102.9 L 206.9 -102.9 L 206.9 -102.9 Q 208 -102.3 208.6 -101.7 L 208.6 -101.7 L 208.6 -101.7 Q 208.6 -101.7 208.6 -101.5 L 208.6 -101.5 L 208.6 -101.5 Q 208.6 -101 208.7 -99.8 L 208.7 -99.8 L 208.7 -99.8 Q 208.8 -98.5 208.9 -97 L 208.9 -97 L 208.9 -97 Q 209 -95.4 209.1 -93.9 L 209.1 -93.9 L 209.1 -93.9 Q 209.1 -92.3 209.1 -91.1 L 209.1 -91.1 L 209.1 -91.1 Q 209.1 -90.9 209 -90.7 L 209 -90.7 L 209 -90.7 Q 208.9 -90.5 208.4 -90.5 L 208.4 -90.5 L 208.4 -90.5 Q 208.1 -90.5 207.7 -90.6 L 207.7 -90.6 L 207.7 -90.6 Q 207.1 -90.8 206.1 -91.4 L 206.1 -91.4 L 206.1 -91.4 Q 205.1 -92.1 203.7 -92.8 L 203.7 -92.8 L 203.7 -92.8 Q 202.4 -93.6 200.7 -94.1 L 200.7 -94.1 L 200.7 -94.1 Q 199.1 -94.7 197.2 -94.7 L 197.2 -94.7 L 197.2 -94.7 Q 194.6 -94.7 192.5 -93.6 L 192.5 -93.6 L 192.5 -93.6 Q 190.4 -92.6 189 -90.6 L 189 -90.6 L 189 -90.6 Q 187.5 -88.7 186.7 -86.1 L 186.7 -86.1 L 186.7 -86.1 Q 185.9 -83.4 185.9 -80.3 L 185.9 -80.3 L 185.9 -80.3 Q 185.9 -77.6 186.4 -75.3 L 186.4 -75.3 L 186.4 -75.3 Q 186.9 -72.9 187.9 -71.1 L 187.9 -71.1 L 187.9 -71.1 Q 188.9 -69.4 190.4 -68.4 L 190.4 -68.4 L 190.4 -68.4 Q 191.9 -67.4 193.9 -67.4 L 193.9 -67.4 L 193.9 -67.4 Q 195.9 -67.4 198.4 -68.3 L 198.4 -68.3 L 199.1 -72.7 L 193.1 -72.7 L 193.1 -72.7 Q 193.8 -76.4 194.3 -78.6 L 194.3 -78.6 L 194.3 -78.6 Q 194.8 -80.8 195.3 -81.8 L 195.3 -81.8 L 195.3 -81.8 Q 195.7 -82.9 196.2 -83.2 L 196.2 -83.2 L 196.2 -83.2 Q 196.6 -83.5 197.3 -83.5 L 197.3 -83.5 L 213.7 -83.5 L 213.7 -83.5 Q 214.4 -83.5 214.7 -83.4 L 214.7 -83.4 L 214.7 -83.4 Q 215.1 -83.3 215.1 -82.8 L 215.1 -82.8 L 215.1 -82.8 Q 215.1 -82.5 215 -82.1 L 215 -82.1 L 215 -82.1 Q 215 -81.7 214.9 -81.1 L 214.9 -81.1 L 213.3 -75.9 L 213.3 -75.9 Q 213 -74.9 212.8 -74.3 L 212.8 -74.3 L 212.8 -74.3 Q 212.6 -73.8 212.4 -73.5 L 212.4 -73.5 L 212.4 -73.5 Q 212.1 -73.3 211.6 -73.2 L 211.6 -73.2 L 211.6 -73.2 Q 211.1 -73.2 210.2 -73.2 L 210.2 -73.2 L 210.2 -73.2 Q 209.7 -73.2 209.6 -72.8 L 209.6 -72.8 L 209.6 -72.8 Q 209.5 -72.3 209.5 -71.9 L 209.5 -71.9 L 209.5 -71.9 Q 209.3 -70.5 209.1 -69.2 L 209.1 -69.2 L 209.1 -69.2 Q 208.9 -67.8 208.7 -66.6 L 208.7 -66.6 L 208.7 -66.6 Q 208.6 -65.5 208.4 -64.6 L 208.4 -64.6 L 208.4 -64.6 Q 208.2 -63.7 208 -63.3 L 208 -63.3 L 208 -63.3 Q 205.9 -61.9 204.1 -60.9 L 204.1 -60.9 L 204.1 -60.9 Q 202.4 -59.9 200.7 -59.2 L 200.7 -59.2 L 200.7 -59.2 Q 199 -58.6 197.1 -58.2 L 197.1 -58.2 L 197.1 -58.2 Q 195.1 -57.9 192.7 -57.9 L 192.7 -57.9 L 192.7 -57.9 Q 188.3 -57.9 184.4 -59.5 L 184.4 -59.5 L 184.4 -59.5 Q 180.6 -61.1 177.7 -64 L 177.7 -64 L 177.7 -64 Q 174.9 -66.8 173.3 -70.8 L 173.3 -70.8 L 173.3 -70.8 Q 171.7 -74.8 171.7 -79.7 Z M 252.4 -94.9 L 249.1 -65.8 L 249.1 -65.8 Q 249.1 -65.7 249.1 -65.5 L 249.1 -65.5 L 249.1 -65.5 Q 249.1 -65.4 249.1 -65.3 L 249.1 -65.3 L 249.1 -65.3 Q 249.1 -64.6 249.4 -64 L 249.4 -64 L 249.4 -64 Q 249.6 -63.5 249.9 -63.2 L 249.9 -63.2 L 249.9 -63.2 Q 250.2 -62.9 250.5 -62.7 L 250.5 -62.7 L 250.5 -62.7 Q 250.7 -62.5 250.7 -62.3 L 250.7 -62.3 L 250.7 -62.3 Q 250.7 -61.9 249.8 -61.5 L 249.8 -61.5 L 241.4 -57.9 L 241.4 -57.9 Q 241.3 -57.9 241.1 -57.9 L 241.1 -57.9 L 241.1 -57.9 Q 240.9 -57.9 240.6 -58.3 L 240.6 -58.3 L 240.6 -58.3 Q 240.4 -58.7 240.2 -59.4 L 240.2 -59.4 L 240.2 -59.4 Q 239.9 -60.1 239.7 -60.9 L 239.7 -60.9 L 239.7 -60.9 Q 239.5 -61.6 239.4 -62.3 L 239.4 -62.3 L 239.4 -62.3 Q 237.4 -60 235.1 -58.9 L 235.1 -58.9 L 235.1 -58.9 Q 232.8 -57.9 230.6 -57.9 L 230.6 -57.9 L 230.6 -57.9 Q 228 -57.9 225.5 -59 L 225.5 -59 L 225.5 -59 Q 223 -60.2 221 -62.3 L 221 -62.3 L 221 -62.3 Q 219.1 -64.5 217.9 -67.5 L 217.9 -67.5 L 217.9 -67.5 Q 216.7 -70.5 216.7 -74.3 L 216.7 -74.3 L 216.7 -74.3 Q 216.7 -78.8 218 -82.5 L 218 -82.5 L 218 -82.5 Q 219.3 -86.2 221.6 -88.8 L 221.6 -88.8 L 221.6 -88.8 Q 223.8 -91.5 226.7 -92.9 L 226.7 -92.9 L 226.7 -92.9 Q 229.7 -94.4 233 -94.4 L 233 -94.4 L 233 -94.4 Q 235.3 -94.4 237.4 -93.4 L 237.4 -93.4 L 237.4 -93.4 Q 239.5 -92.5 241.4 -91 L 241.4 -91 L 241.4 -91 Q 241.6 -91.9 241.6 -92.5 L 241.6 -92.5 L 241.6 -92.5 Q 241.6 -93 241.7 -93.3 L 241.7 -93.3 L 241.7 -93.3 Q 241.9 -93.7 242.2 -93.8 L 242.2 -93.8 L 242.2 -93.8 Q 242.5 -93.9 243.2 -93.9 L 243.2 -93.9 L 243.2 -93.9 Q 245.5 -94.3 247.7 -94.5 L 247.7 -94.5 L 247.7 -94.5 Q 249.9 -94.8 252.4 -94.9 L 252.4 -94.9 Z M 238.5 -68.3 L 239.8 -77.6 L 239.8 -77.6 Q 240.1 -79.3 240.2 -80.9 L 240.2 -80.9 L 240.2 -80.9 Q 240.3 -82.5 240.4 -83.8 L 240.4 -83.8 L 240.4 -83.8 Q 239.9 -84.2 239.3 -84.6 L 239.3 -84.6 L 239.3 -84.6 Q 238.7 -85 238.1 -85.4 L 238.1 -85.4 L 238.1 -85.4 Q 237.4 -85.7 236.7 -85.9 L 236.7 -85.9 L 236.7 -85.9 Q 235.9 -86.2 235.1 -86.2 L 235.1 -86.2 L 235.1 -86.2 Q 233.4 -86.2 232.3 -85.1 L 232.3 -85.1 L 232.3 -85.1 Q 231.1 -84 230.4 -82.4 L 230.4 -82.4 L 230.4 -82.4 Q 229.7 -80.8 229.4 -79 L 229.4 -79 L 229.4 -79 Q 229.1 -77.2 229.1 -75.8 L 229.1 -75.8 L 229.1 -75.8 Q 229.1 -70.9 230.4 -68.6 L 230.4 -68.6 L 230.4 -68.6 Q 231.7 -66.3 234.1 -66.3 L 234.1 -66.3 L 234.1 -66.3 Q 235 -66.3 236.1 -66.8 L 236.1 -66.8 L 236.1 -66.8 Q 237.3 -67.4 238.5 -68.3 L 238.5 -68.3 Z M 258.4 -85.9 L 258.4 -85.9 L 258.4 -85.9 Q 258.8 -90.2 259 -94.4 L 259 -94.4 L 259 -94.4 Q 259.2 -98.6 259.5 -103 L 259.5 -103 L 259.5 -103 Q 259.6 -104 259.7 -104.4 L 259.7 -104.4 L 259.7 -104.4 Q 259.9 -104.8 260.4 -104.9 L 260.4 -104.9 L 260.4 -104.9 Q 263.3 -105.5 266.2 -106 L 266.2 -106 L 266.2 -106 Q 269.2 -106.6 272.1 -107.5 L 272.1 -107.5 L 272.1 -107.5 Q 272.2 -107.5 272.4 -107.5 L 272.4 -107.5 L 272.4 -107.5 Q 272.7 -107.5 272.7 -107.2 L 272.7 -107.2 L 268.7 -62.6 L 268.7 -62 L 268.7 -62 Q 268.7 -61.8 268.5 -61.6 L 268.5 -61.6 L 268.5 -61.6 Q 268.2 -61.4 267.4 -61.2 L 267.4 -61.2 L 259.2 -58.2 L 259.2 -58.2 Q 258.9 -58 258.3 -57.9 L 258.3 -57.9 L 258.3 -57.9 Q 257.8 -57.7 257.2 -57.7 L 257.2 -57.7 L 257.2 -57.7 Q 256.8 -57.7 256.5 -57.9 L 256.5 -57.9 L 256.5 -57.9 Q 256.1 -58.1 256.1 -58.7 L 256.1 -58.7 L 256.1 -58.8 L 256.1 -58.8 Q 256.4 -62 256.6 -65 L 256.6 -65 L 256.6 -65 Q 256.9 -68 257.1 -71.3 L 257.1 -71.3 L 257.1 -71.3 Q 257.4 -74.5 257.7 -78.1 L 257.7 -78.1 L 257.7 -78.1 Q 258 -81.7 258.4 -85.9 Z M 277.8 -85.9 L 277.8 -85.9 L 277.8 -85.9 Q 278.2 -90.2 278.4 -94.4 L 278.4 -94.4 L 278.4 -94.4 Q 278.7 -98.6 279 -103 L 279 -103 L 279 -103 Q 279 -104 279.2 -104.4 L 279.2 -104.4 L 279.2 -104.4 Q 279.3 -104.8 279.9 -104.9 L 279.9 -104.9 L 279.9 -104.9 Q 282.8 -105.5 285.7 -106 L 285.7 -106 L 285.7 -106 Q 288.6 -106.6 291.6 -107.5 L 291.6 -107.5 L 291.6 -107.5 Q 291.6 -107.5 291.8 -107.5 L 291.8 -107.5 L 291.8 -107.5 Q 292.2 -107.5 292.2 -107.2 L 292.2 -107.2 L 288.1 -62.6 L 288.1 -62 L 288.1 -62 Q 288.1 -61.8 287.9 -61.6 L 287.9 -61.6 L 287.9 -61.6 Q 287.7 -61.4 286.9 -61.2 L 286.9 -61.2 L 278.7 -58.2 L 278.7 -58.2 Q 278.3 -58 277.8 -57.9 L 277.8 -57.9 L 277.8 -57.9 Q 277.2 -57.7 276.7 -57.7 L 276.7 -57.7 L 276.7 -57.7 Q 276.2 -57.7 275.9 -57.9 L 275.9 -57.9 L 275.9 -57.9 Q 275.6 -58.1 275.6 -58.7 L 275.6 -58.7 L 275.6 -58.8 L 275.6 -58.8 Q 275.8 -62 276.1 -65 L 276.1 -65 L 276.1 -65 Q 276.3 -68 276.6 -71.3 L 276.6 -71.3 L 276.6 -71.3 Q 276.8 -74.5 277.1 -78.1 L 277.1 -78.1 L 277.1 -78.1 Q 277.5 -81.7 277.8 -85.9 Z M 313.7 -94.4 L 313.7 -94.4 L 313.7 -94.4 Q 316.7 -94.4 319.1 -93.3 L 319.1 -93.3 L 319.1 -93.3 Q 321.6 -92.2 323.3 -90.4 L 323.3 -90.4 L 323.3 -90.4 Q 325 -88.6 326 -86.4 L 326 -86.4 L 326 -86.4 Q 326.9 -84.3 326.9 -82.1 L 326.9 -82.1 L 326.9 -82.1 Q 326.9 -80.1 325.7 -78.2 L 325.7 -78.2 L 325.7 -78.2 Q 324.5 -76.2 322.4 -74.7 L 322.4 -74.7 L 322.4 -74.7 Q 320.2 -73.1 317.2 -72.1 L 317.2 -72.1 L 317.2 -72.1 Q 314.2 -71.2 310.6 -71.2 L 310.6 -71.2 L 310.6 -71.2 Q 308.8 -71.2 306.7 -71.5 L 306.7 -71.5 L 306.7 -71.5 Q 306.8 -70.2 307.5 -69.2 L 307.5 -69.2 L 307.5 -69.2 Q 308.1 -68.3 309.1 -67.6 L 309.1 -67.6 L 309.1 -67.6 Q 310.1 -67 311.4 -66.7 L 311.4 -66.7 L 311.4 -66.7 Q 312.7 -66.4 314 -66.4 L 314 -66.4 L 314 -66.4 Q 315.5 -66.4 316.9 -66.7 L 316.9 -66.7 L 316.9 -66.7 Q 318.3 -66.9 319.6 -67.4 L 319.6 -67.4 L 319.6 -67.4 Q 320.9 -67.8 322.1 -68.3 L 322.1 -68.3 L 322.1 -68.3 Q 323.2 -68.9 324.3 -69.4 L 324.3 -69.4 L 324.3 -69.4 Q 324.6 -69.5 324.8 -69.5 L 324.8 -69.5 L 324.8 -69.5 Q 325 -69.6 325.2 -69.6 L 325.2 -69.6 L 325.2 -69.6 Q 325.2 -69.6 325.2 -69.1 L 325.2 -69.1 L 325.2 -69.1 Q 325.1 -68.6 325.1 -67.7 L 325.1 -67.7 L 325.1 -67.7 Q 325.1 -66.8 325.1 -65.5 L 325.1 -65.5 L 325.1 -65.5 Q 325.1 -64.2 325.1 -62.6 L 325.1 -62.6 L 325.1 -62.6 Q 325.2 -62.5 325.2 -62.3 L 325.2 -62.3 L 325.2 -62.3 Q 325.2 -62.2 325.2 -62.1 L 325.2 -62.1 L 325.2 -62.1 Q 325.2 -61.7 324.6 -61.3 L 324.6 -61.3 L 324.6 -61.3 Q 323.9 -60.8 322.7 -60.3 L 322.7 -60.3 L 322.7 -60.3 Q 321.6 -59.9 320.2 -59.4 L 320.2 -59.4 L 320.2 -59.4 Q 318.8 -59 317.3 -58.6 L 317.3 -58.6 L 317.3 -58.6 Q 315.9 -58.3 314.5 -58.1 L 314.5 -58.1 L 314.5 -58.1 Q 313.1 -57.9 312.1 -57.9 L 312.1 -57.9 L 312.1 -57.9 Q 308.7 -57.9 305.5 -59 L 305.5 -59 L 305.5 -59 Q 302.4 -60.2 299.9 -62.4 L 299.9 -62.4 L 299.9 -62.4 Q 297.5 -64.6 296 -67.7 L 296 -67.7 L 296 -67.7 Q 294.5 -70.8 294.5 -74.8 L 294.5 -74.8 L 294.5 -74.8 Q 294.5 -78.8 295.9 -82.4 L 295.9 -82.4 L 295.9 -82.4 Q 297.3 -86 299.9 -88.7 L 299.9 -88.7 L 299.9 -88.7 Q 302.4 -91.3 306 -92.8 L 306 -92.8 L 306 -92.8 Q 309.5 -94.4 313.7 -94.4 Z M 313.4 -86.1 L 313.4 -86.1 L 313.4 -86.1 Q 312.1 -86.1 311 -85.5 L 311 -85.5 L 311 -85.5 Q 309.9 -85 309 -83.9 L 309 -83.9 L 309 -83.9 Q 308.1 -82.9 307.5 -81.5 L 307.5 -81.5 L 307.5 -81.5 Q 306.8 -80.1 306.4 -78.4 L 306.4 -78.4 L 306.4 -78.4 Q 309.6 -78.9 311.8 -79.6 L 311.8 -79.6 L 311.8 -79.6 Q 313.9 -80.2 315.2 -80.8 L 315.2 -80.8 L 315.2 -80.8 Q 316.5 -81.5 317 -82.1 L 317 -82.1 L 317 -82.1 Q 317.5 -82.8 317.5 -83.3 L 317.5 -83.3 L 317.5 -83.3 Q 317.5 -83.9 317.1 -84.4 L 317.1 -84.4 L 317.1 -84.4 Q 316.7 -84.9 316.1 -85.3 L 316.1 -85.3 L 316.1 -85.3 Q 315.4 -85.7 314.7 -85.9 L 314.7 -85.9 L 314.7 -85.9 Q 314 -86.1 313.4 -86.1 Z M 358.3 -94.6 L 356.4 -84.9 L 356.4 -84.9 Q 355.7 -85 354.9 -85.1 L 354.9 -85.1 L 354.9 -85.1 Q 354.1 -85.2 353.2 -85.2 L 353.2 -85.2 L 353.2 -85.2 Q 351.8 -85.2 350.4 -84.9 L 350.4 -84.9 L 350.4 -84.9 Q 349 -84.7 347.7 -84 L 347.7 -84 L 347.7 -84 Q 346.5 -83.3 345.6 -82.1 L 345.6 -82.1 L 345.6 -82.1 Q 344.8 -80.9 344.5 -79 L 344.5 -79 L 344.5 -79 Q 344.3 -76.7 344.2 -75.2 L 344.2 -75.2 L 344.2 -75.2 Q 344 -73.7 344 -72.8 L 344 -72.8 L 344 -72.8 Q 343.9 -71.8 343.9 -71.2 L 343.9 -71.2 L 343.9 -71.2 Q 343.8 -70.7 343.8 -70.2 L 343.8 -70.2 L 343.8 -70.2 Q 343.8 -70 343.7 -69.5 L 343.7 -69.5 L 343.7 -69.5 Q 343.7 -68.9 343.6 -68.2 L 343.6 -68.2 L 343.6 -68.2 Q 343.5 -67.4 343.4 -66.5 L 343.4 -66.5 L 343.4 -66.5 Q 343.3 -65.7 343.2 -64.9 L 343.2 -64.9 L 343.2 -64.9 Q 343.1 -64.2 343.1 -63.6 L 343.1 -63.6 L 343.1 -63.6 Q 343.1 -63 343.1 -62.9 L 343.1 -62.9 L 343.1 -62.9 Q 343.1 -62.7 343.1 -62.5 L 343.1 -62.5 L 343.1 -62.5 Q 343.1 -62.3 343.1 -62.2 L 343.1 -62.2 L 343.1 -62.2 Q 343.1 -61.9 342.9 -61.7 L 342.9 -61.7 L 342.9 -61.7 Q 342.6 -61.6 341.8 -61.3 L 341.8 -61.3 L 333.5 -58.4 L 333.5 -58.4 Q 333.2 -58.2 332.6 -58.1 L 332.6 -58.1 L 332.6 -58.1 Q 332.1 -57.9 331.5 -57.9 L 331.5 -57.9 L 331.5 -57.9 Q 331.1 -57.9 330.7 -58.1 L 330.7 -58.1 L 330.7 -58.1 Q 330.4 -58.3 330.4 -58.8 L 330.4 -58.8 L 333.1 -89.8 L 333.1 -89.8 Q 333.2 -90.8 333.4 -91.2 L 333.4 -91.2 L 333.4 -91.2 Q 333.5 -91.6 334.1 -91.8 L 334.1 -91.8 L 334.1 -91.8 Q 336.9 -92.3 339.9 -92.9 L 339.9 -92.9 L 339.9 -92.9 Q 343 -93.5 345.8 -94.4 L 345.8 -94.4 L 345.8 -94.4 Q 346.1 -94.4 346.1 -94.3 L 346.1 -94.3 L 346.1 -94.3 Q 346.1 -94.2 346.1 -94.1 L 346.1 -94.1 L 346.1 -94.1 Q 346.1 -94 346.1 -93.9 L 346.1 -93.9 L 346.1 -93.9 Q 346.1 -93.8 346 -93.3 L 346 -93.3 L 346 -93.3 Q 346 -92.9 345.8 -92 L 345.8 -92 L 345.8 -92 Q 345.7 -91.1 345.4 -89.5 L 345.4 -89.5 L 345.4 -89.5 Q 346.9 -90.6 348.6 -91.6 L 348.6 -91.6 L 348.6 -91.6 Q 350.3 -92.5 352.1 -93.2 L 352.1 -93.2 L 352.1 -93.2 Q 353.8 -93.8 355.5 -94.2 L 355.5 -94.2 L 355.5 -94.2 Q 357.1 -94.6 358.3 -94.6 L 358.3 -94.6 Z M 379.2 -60.7 L 372.4 -45.2 L 372.4 -45.2 Q 372.3 -45.1 372.2 -45.1 L 372.2 -45.1 L 372.2 -45.1 Q 372.1 -45 372 -45 L 372 -45 L 372 -45 Q 371.8 -45 371.7 -45 L 371.7 -45 L 371.7 -45 Q 370.6 -45.4 369.6 -45.7 L 369.6 -45.7 L 369.6 -45.7 Q 368.6 -46 367.6 -46.2 L 367.6 -46.2 L 367.6 -46.2 Q 366.6 -46.4 365.6 -46.6 L 365.6 -46.6 L 365.6 -46.6 Q 364.5 -46.8 363.4 -47.1 L 363.4 -47.1 L 363.4 -47.1 Q 363.1 -47.2 362.9 -47.3 L 362.9 -47.3 L 362.9 -47.3 Q 362.7 -47.4 362.7 -47.8 L 362.7 -47.8 L 362.7 -47.8 Q 362.7 -47.9 362.8 -48.2 L 362.8 -48.2 L 362.8 -48.2 Q 362.9 -48.6 363.4 -49.7 L 363.4 -49.7 L 363.4 -49.7 Q 363.8 -50.8 364.7 -52.9 L 364.7 -52.9 L 364.7 -52.9 Q 365.6 -55 367.2 -58.6 L 367.2 -58.6 L 367.2 -58.6 Q 366.7 -60.2 366.1 -62.3 L 366.1 -62.3 L 366.1 -62.3 Q 365.6 -64.5 364.9 -67.1 L 364.9 -67.1 L 364.9 -67.1 Q 364.2 -69.7 363.5 -72.6 L 363.5 -72.6 L 363.5 -72.6 Q 362.8 -75.5 362 -78.4 L 362 -78.4 L 362 -78.4 Q 361.3 -81.4 360.6 -84.3 L 360.6 -84.3 L 360.6 -84.3 Q 359.8 -87.2 359.1 -89.8 L 359.1 -89.8 L 359.1 -89.8 Q 358.9 -90.3 358.9 -90.6 L 358.9 -90.6 L 358.9 -90.6 Q 358.9 -91 358.9 -91.2 L 358.9 -91.2 L 358.9 -91.2 Q 358.9 -91.6 359.4 -91.8 L 359.4 -91.8 L 359.4 -91.8 Q 361.8 -92.3 364.4 -92.9 L 364.4 -92.9 L 364.4 -92.9 Q 367.1 -93.4 369.4 -94.3 L 369.4 -94.3 L 369.4 -94.3 Q 369.5 -94.4 369.7 -94.4 L 369.7 -94.4 L 369.7 -94.4 Q 370.1 -94.4 370.1 -94.1 L 370.1 -94.1 L 373.9 -73.1 L 373.9 -73.1 Q 374.1 -73.4 374.4 -74.4 L 374.4 -74.4 L 374.4 -74.4 Q 374.8 -75.4 375.2 -76.8 L 375.2 -76.8 L 375.2 -76.8 Q 375.7 -78.2 376.3 -79.8 L 376.3 -79.8 L 376.3 -79.8 Q 376.9 -81.5 377.6 -83.2 L 377.6 -83.2 L 377.6 -83.2 Q 378.2 -84.9 378.8 -86.6 L 378.8 -86.6 L 378.8 -86.6 Q 379.4 -88.3 379.9 -89.8 L 379.9 -89.8 L 379.9 -89.8 Q 380.5 -91.3 380.9 -92.4 L 380.9 -92.4 L 380.9 -92.4 Q 381.2 -93.5 381.5 -94.1 L 381.5 -94.1 L 381.5 -94.1 Q 381.6 -94.4 381.9 -94.4 L 381.9 -94.4 L 381.9 -94.4 Q 382 -94.4 382.1 -94.4 L 382.1 -94.4 L 382.1 -94.4 Q 382.1 -94.3 382.2 -94.3 L 382.2 -94.3 L 382.2 -94.3 Q 384.5 -93.4 387 -92.9 L 387 -92.9 L 387 -92.9 Q 389.5 -92.3 391.9 -91.8 L 391.9 -91.8 L 391.9 -91.8 Q 392.5 -91.6 392.5 -91.1 L 392.5 -91.1 L 392.5 -91.1 Q 392.5 -90.7 392.1 -89.8 L 392.1 -89.8 L 379.2 -60.7 Z" fill="#e49c49"></path></g></g><style>text {
  font-size: 64px;
  font-family: Arial Black;
  dominant-baseline: central;
  text-anchor: middle;
}</style></svg>